{
  "accessors": [
    {
      "bufferView": 2,
      "componentType": 5126,
      "count": 430,
      "max": [
        10.074583053588867,
        278.3879699707031,
        134.5640106201172
      ],
      "min": [
        -10.074583053588867,
        3.552713678800501e-15,
        -0.0
      ],
      "type": "VEC3"
    },
    {
      "bufferView": 2,
      "byteOffset": 5160,
      "componentType": 5126,
      "count": 430,
      "max": [
        0.9998739957809448,
        1.0,
        1.0
      ],
      "min": [
        -0.9998739957809448,
        -1.0,
        -1.0
      ],
      "type": "VEC3"
    },
    {
      "bufferView": 3,
      "componentType": 5126,
      "count": 430,
      "max": [
        1.0,
        0.8728886842727661,
        1.0,
        1.0
      ],
      "min": [
        -1.0,
        -0.8735973834991455,
        -1.0,
        1.0
      ],
      "type": "VEC4"
    },
    {
      "bufferView": 1,
      "componentType": 5126,
      "count": 430,
      "max": [
        0.984349250793457,
        0.9957466125488281
      ],
      "min": [
        0.01564282365143299,
        0.0034775733947753906
      ],
      "type": "VEC2"
    },
    {
      "bufferView": 0,
      "componentType": 5125,
      "count": 1188,
      "type": "SCALAR"
    },
    {
      "bufferView": 2,
      "byteOffset": 10320,
      "componentType": 5126,
      "count": 4570,
      "max": [
        10.174607276916504,
        273.0120544433594,
        124.75837707519531
      ],
      "min": [
        -10.63667106628418,
        6.402233123779297,
        -1.9716559648513794
      ],
      "type": "VEC3"
    },
    {
      "bufferView": 2,
      "byteOffset": 65160,
      "componentType": 5126,
      "count": 4570,
      "max": [
        1.0,
        1.0,
        1.0
      ],
      "min": [
        -1.0,
        -1.0,
        -1.0
      ],
      "type": "VEC3"
    },
    {
      "bufferView": 3,
      "byteOffset": 6880,
      "componentType": 5126,
      "count": 4570,
      "max": [
        1.0,
        1.0,
        1.0,
        1.0
      ],
      "min": [
        -1.0,
        -1.0,
        -1.0,
        1.0
      ],
      "type": "VEC4"
    },
    {
      "bufferView": 1,
      "byteOffset": 3440,
      "componentType": 5126,
      "count": 4570,
      "max": [
        0.9995112419128418,
        0.9995112419128418
      ],
      "min": [
        0.0004887530812993646,
        -0.0005505084991455078
      ],
      "type": "VEC2"
    },
    {
      "bufferView": 0,
      "byteOffset": 4752,
      "componentType": 5125,
      "count": 16734,
      "type": "SCALAR"
    },
    {
      "bufferView": 2,
      "byteOffset": 120000,
      "componentType": 5126,
      "count": 430,
      "max": [
        10.074583053588867,
        278.3879699707031,
        134.5640106201172
      ],
      "min": [
        -10.074583053588867,
        3.552713678800501e-15,
        -0.0
      ],
      "type": "VEC3"
    },
    {
      "bufferView": 2,
      "byteOffset": 125160,
      "componentType": 5126,
      "count": 430,
      "max": [
        0.9998739957809448,
        1.0,
        1.0
      ],
      "min": [
        -0.9998739957809448,
        -1.0,
        -1.0
      ],
      "type": "VEC3"
    },
    {
      "bufferView": 3,
      "byteOffset": 80000,
      "componentType": 5126,
      "count": 430,
      "max": [
        1.0,
        0.8728886842727661,
        1.0,
        1.0
      ],
      "min": [
        -1.0,
        -0.8735973834991455,
        -1.0,
        1.0
      ],
      "type": "VEC4"
    },
    {
      "bufferView": 1,
      "byteOffset": 40000,
      "componentType": 5126,
      "count": 430,
      "max": [
        0.984349250793457,
        0.9957466125488281
      ],
      "min": [
        0.01564282365143299,
        0.0034775733947753906
      ],
      "type": "VEC2"
    },
    {
      "bufferView": 0,
      "byteOffset": 71688,
      "componentType": 5125,
      "count": 1188,
      "type": "SCALAR"
    },
    {
      "bufferView": 2,
      "byteOffset": 130320,
      "componentType": 5126,
      "count": 4570,
      "max": [
        10.174607276916504,
        273.0120544433594,
        124.75837707519531
      ],
      "min": [
        -10.63667106628418,
        6.402233123779297,
        -1.9716559648513794
      ],
      "type": "VEC3"
    },
    {
      "bufferView": 2,
      "byteOffset": 185160,
      "componentType": 5126,
      "count": 4570,
      "max": [
        1.0,
        1.0,
        1.0
      ],
      "min": [
        -1.0,
        -1.0,
        -1.0
      ],
      "type": "VEC3"
    },
    {
      "bufferView": 3,
      "byteOffset": 86880,
      "componentType": 5126,
      "count": 4570,
      "max": [
        1.0,
        1.0,
        1.0,
        1.0
      ],
      "min": [
        -1.0,
        -1.0,
        -1.0,
        1.0
      ],
      "type": "VEC4"
    },
    {
      "bufferView": 1,
      "byteOffset": 43440,
      "componentType": 5126,
      "count": 4570,
      "max": [
        0.9995112419128418,
        0.9995112419128418
      ],
      "min": [
        0.0004887530812993646,
        -0.0005505084991455078
      ],
      "type": "VEC2"
    },
    {
      "bufferView": 0,
      "byteOffset": 76440,
      "componentType": 5125,
      "count": 16734,
      "type": "SCALAR"
    }
  ],
  "asset": {
    "extras": {
      "author": "adventurer (https://sketchfab.com/ahmagh2e)",
      "license": "CC-BY-4.0 (http://creativecommons.org/licenses/by/4.0/)",
      "source": "https://sketchfab.com/3d-models/door--prison-door-metal-old-12mb-45306a46c95b44ca8369f89c6648648c",
      "title": "door _Prison Door_metal_old -12MB"
    },
    "generator": "Sketchfab-16.12.0",
    "version": "2.0"
  },
  "bufferViews": [
    {
      "buffer": 0,
      "byteLength": 143376,
      "name": "floatBufferViews",
      "target": 34963
    },
    {
      "buffer": 0,
      "byteLength": 80000,
      "byteOffset": 143376,
      "byteStride": 8,
      "name": "floatBufferViews",
      "target": 34962
    },
    {
      "buffer": 0,
      "byteLength": 240000,
      "byteOffset": 223376,
      "byteStride": 12,
      "name": "floatBufferViews",
      "target": 34962
    },
    {
      "buffer": 0,
      "byteLength": 160000,
      "byteOffset": 463376,
      "byteStride": 16,
      "name": "floatBufferViews",
      "target": 34962
    }
  ],
  "buffers": [
    {
      "byteLength": 623376,
      "uri": "scene.bin"
    }
  ],
  "images": [
    {
      "uri": "textures/prison_door_baseColor.png"
    },
    {
      "uri": "textures/prison_door_metallicRoughness.png"
    },
    {
      "uri": "textures/prison_door_normal.png"
    }
  ],
  "materials": [
    {
      "doubleSided": true,
      "name": "prison_door",
      "normalTexture": {
        "index": 2
      },
      "pbrMetallicRoughness": {
        "baseColorTexture": {
          "index": 0
        },
        "metallicRoughnessTexture": {
          "index": 1
        }
      }
    }
  ],
  "meshes": [
    {
      "name": "prison_door_2_prison door_0",
      "primitives": [
        {
          "attributes": {
            "NORMAL": 1,
            "POSITION": 0,
            "TANGENT": 2,
            "TEXCOORD_0": 3
          },
          "indices": 4,
          "material": 0,
          "mode": 4
        }
      ]
    },
    {
      "name": "prison_door_prison door_0",
      "primitives": [
        {
          "attributes": {
            "NORMAL": 6,
            "POSITION": 5,
            "TANGENT": 7,
            "TEXCOORD_0": 8
          },
          "indices": 9,
          "material": 0,
          "mode": 4
        }
      ]
    },
    {
      "name": "prison_door_2_2_prison door_0",
      "primitives": [
        {
          "attributes": {
            "NORMAL": 11,
            "POSITION": 10,
            "TANGENT": 12,
            "TEXCOORD_0": 13
          },
          "indices": 14,
          "material": 0,
          "mode": 4
        }
      ]
    },
    {
      "name": "prison_door_2_3_prison door_0",
      "primitives": [
        {
          "attributes": {
            "NORMAL": 16,
            "POSITION": 15,
            "TANGENT": 17,
            "TEXCOORD_0": 18
          },
          "indices": 19,
          "material": 0,
          "mode": 4
        }
      ]
    }
  ],
  "nodes": [
    {
      "children": [
        1
      ],
      "matrix": [
        1.0,
        0.0,
        0.0,
        0.0,
        0.0,
        2.220446049250313e-16,
        -1.0,
        0.0,
        0.0,
        1.0,
        2.220446049250313e-16,
        0.0,
        0.0,
        0.0,
        0.0,
        1.0
      ],
      "name": "Sketchfab_model"
    },
    {
      "children": [
        2
      ],
      "matrix": [
        0.009999999776482582,
        0.0,
        0.0,
        0.0,
        0.0,
        0.0,
        0.009999999776482582,
        0.0,
        0.0,
        -0.009999999776482582,
        0.0,
        0.0,
        0.0,
        0.0,
        0.0,
        1.0
      ],
      "name": "53f0619e2fd24161a81b09343f56a581.fbx"
    },
    {
      "children": [
        3,
        8
      ],
      "name": "RootNode"
    },
    {
      "children": [
        4,
        6
      ],
      "matrix": [
        1.0,
        0.0,
        0.0,
        0.0,
        0.0,
        1.0,
        0.0,
        0.0,
        0.0,
        0.0,
        1.0,
        0.0,
        1.5664359331130981,
        -0.24743859469890594,
        -260.5093994140625,
        1.0
      ],
      "name": "Null_1"
    },
    {
      "children": [
        5
      ],
      "matrix": [
        1.0,
        0.0,
        0.0,
        0.0,
        0.0,
        1.0,
        0.0,
        0.0,
        0.0,
        0.0,
        1.0,
        0.0,
        -1.5408096313476563,
        0.24743859469890594,
        -3.098763942718506,
        1.0
      ],
      "name": "prison_door_2"
    },
    {
      "mesh": 0,
      "name": "prison_door_2_prison door_0"
    },
    {
      "children": [
        7
      ],
      "matrix": [
        0.5080686421027857,
        0.0,
        -0.8613165822807729,
        0.0,
        0.0,
        1.0,
        0.0,
        0.0,
        0.8613165822807729,
        0.0,
        0.5080686421027857,
        0.0,
        1.5408096313476563,
        -0.24743859469890594,
        3.098763942718506,
        1.0
      ],
      "name": "prison_door"
    },
    {
      "mesh": 1,
      "name": "prison_door_prison door_0"
    },
    {
      "children": [
        9,
        11
      ],
      "matrix": [
        1.0,
        0.0,
        0.0,
        0.0,
        0.0,
        1.0,
        0.0,
        0.0,
        0.0,
        0.0,
        1.0,
        0.0,
        1.5664359331130981,
        -0.24743859469890594,
        -64.18324279785156,
        1.0
      ],
      "name": "Null"
    },
    {
      "children": [
        10
      ],
      "matrix": [
        1.0,
        0.0,
        0.0,
        0.0,
        0.0,
        1.0,
        0.0,
        0.0,
        0.0,
        0.0,
        1.0,
        0.0,
        -1.5408096313476563,
        0.24743859469890594,
        -3.098763942718506,
        1.0
      ],
      "name": "prison_door_2_2"
    },
    {
      "mesh": 2,
      "name": "prison_door_2_2_prison door_0"
    },
    {
      "children": [
        12
      ],
      "matrix": [
        1.0,
        0.0,
        0.0,
        0.0,
        0.0,
        1.0,
        0.0,
        0.0,
        0.0,
        0.0,
        1.0,
        0.0,
        1.5408096313476563,
        -0.24743859469890594,
        3.098763942718506,
        1.0
      ],
      "name": "prison_door_2_3"
    },
    {
      "mesh": 3,
      "name": "prison_door_2_3_prison door_0"
    }
  ],
  "samplers": [
    {
      "magFilter": 9729,
      "minFilter": 9987,
      "wrapS": 10497,
      "wrapT": 10497
    }
  ],
  "scene": 0,
  "scenes": [
    {
      "name": "Sketchfab_Scene",
      "nodes": [
        0
      ]
    }
  ],
  "textures": [
    {
      "sampler": 0,
      "source": 0
    },
    {
      "sampler": 0,
      "source": 1
    },
    {
      "sampler": 0,
      "source": 2
    }
  ]
}
