<?xml version="1.0" encoding="UTF-8" standalone="no"?>
<svg
   version="1.1"
   viewBox="0 0 2052480 1060560"
   id="svg124"
   sodipodi:docname="CP_Logoo.svg"
   inkscape:export-filename="..\..\..\nas montanelli disco 2 1tb\website\boykisser-meme-site\public\CP_Logoo.svg"
   inkscape:export-xdpi="91.869034"
   inkscape:export-ydpi="91.869034"
   width="2052480"
   height="1060560"
   xmlns:inkscape="http://www.inkscape.org/namespaces/inkscape"
   xmlns:sodipodi="http://sodipodi.sourceforge.net/DTD/sodipodi-0.dtd"
   xmlns="http://www.w3.org/2000/svg"
   xmlns:svg="http://www.w3.org/2000/svg">
  <sodipodi:namedview
     id="namedview126"
     pagecolor="#ffffff"
     bordercolor="#000000"
     borderopacity="0.25"
     inkscape:showpageshadow="2"
     inkscape:pageopacity="0.0"
     inkscape:pagecheckerboard="0"
     inkscape:deskcolor="#d1d1d1"
     showgrid="false" />
  <!-- Generator: Adobe Illustrator 29.3.0, SVG Export Plug-In . SVG Version: 2.1.0 Build 146)  -->
  <defs
     id="defs67">
    <style
       id="style65">
      .st0 {
        stroke-width: 10px;
      }

      .st0, .st1 {
        fill: #fff;
      }

      .st0, .st2, .st3, .st4 {
        stroke-miterlimit: 10;
      }

      .st0, .st2, .st4 {
        stroke: #000;
      }

      .st5 {
        fill: blue;
      }

      .st2 {
        stroke-width: 8px;
      }

      .st2, .st3, .st4 {
        fill: none;
      }

      .st6 {
        fill: #4d9046;
      }

      .st3 {
        stroke: #fff;
        stroke-width: 12px;
      }

      .st7 {
        fill: #848584;
      }

      .st8 {
        fill: #dfdfdf;
      }

      .st9 {
        fill: #c6c6c6;
      }

      .st10 {
        fill: #0a0a0a;
      }

      .st11 {
        fill: #fefefe;
      }

      .st4 {
        stroke-width: 9px;
      }

      .st12 {
        fill: #07ff00;
      }
    </style>
  </defs>
  <g
     id="Stand"
     transform="translate(-806400,-66960)">
    <line
       class="st2"
       x1="1158"
       y1="966"
       x2="1158"
       y2="1012"
       id="line69" />
    <line
       class="st3"
       x1="740"
       y1="966"
       x2="740"
       y2="1012"
       id="line71" />
    <rect
       class="st7"
       x="746"
       y="968"
       width="408"
       height="48"
       id="rect73" />
    <rect
       class="st7"
       x="696"
       y="912"
       width="511"
       height="49"
       id="rect75" />
    <rect
       class="st9"
       x="756"
       y="981"
       width="389"
       height="23"
       id="rect77" />
    <rect
       class="st9"
       x="704"
       y="925"
       width="491"
       height="26"
       id="rect79" />
    <rect
       class="st9"
       x="577"
       y="1025"
       width="755"
       height="11"
       id="rect81" />
    <line
       class="st0"
       x1="685"
       y1="966"
       x2="1214"
       y2="966"
       id="line83" />
    <polygon
       class="st1"
       points="685,971 685,912 696,912 696,961 "
       id="polygon85" />
    <line
       class="st4"
       x1="1210"
       y1="966"
       x2="1210"
       y2="911"
       id="line87" />
    <rect
       class="st7"
       x="557"
       y="1004"
       width="787"
       height="34"
       id="rect89" />
    <line
       class="st2"
       x1="1348"
       y1="1042"
       x2="1348"
       y2="1004"
       id="line91" />
    <rect
       class="st1"
       x="568"
       y="1014"
       width="765"
       height="22"
       id="rect93" />
    <rect
       class="st9"
       x="577"
       y="1024"
       width="756"
       height="12"
       id="rect95" />
    <line
       class="st2"
       x1="557"
       y1="1040"
       x2="1352"
       y2="1040"
       id="line97" />
  </g>
  <g
     id="Frame"
     transform="translate(-806400,-66960)">
    <rect
       class="st10"
       x="421"
       y="64"
       width="1068"
       height="851"
       id="rect100" />
    <polyline
       class="st7"
       points="1479 62 1479 904 420 904"
       id="polyline102" />
    <polyline
       class="st1"
       points="420 904 420 62 1479 62"
       id="polyline104" />
    <rect
       class="st9"
       x="449"
       y="85"
       width="1001"
       height="796"
       id="rect106" />
    <rect
       class="st12"
       x="1337"
       y="853"
       width="56"
       height="10"
       id="rect108" />
    <rect
       class="st6"
       x="1337"
       y="843"
       width="56"
       height="10"
       id="rect110" />
    <polyline
       class="st11"
       points="1392.5 150.5 1392.5 818.5 507.5 818.5"
       id="polyline112" />
    <polyline
       class="st7"
       points="507.5 818.5 507.5 150.5 1392.5 150.5"
       id="polyline114" />
  </g>
  <g
     id="Screen"
     transform="translate(-806400,-66960)">
    <polyline
       class="st8"
       points="1381 159 1381 809 520 809"
       id="polyline117" />
    <polyline
       class="st10"
       points="520 809 520 159 1381 159"
       id="polyline119" />
    <polygon
       class="st5"
       points="1365,794 539,795 539,172 1365,171 "
       id="polygon121" />
  </g>
</svg>
